<?xml version="1.0" standalone="no"?>
<!DOCTYPE svg PUBLIC "-//W3C//DTD SVG 20010904//EN"
 "http://www.w3.org/TR/2001/REC-SVG-20010904/DTD/svg10.dtd">
<svg version="1.0" xmlns="http://www.w3.org/2000/svg"
 width="843.000000pt" height="843.000000pt" viewBox="0 0 843.000000 843.000000"
 preserveAspectRatio="xMidYMid meet">

<g transform="translate(0.000000,843.000000) scale(0.100000,-0.100000)"
fill="#000000" stroke="none">
<path d="M3626 6569 c-32 -5 -61 -11 -64 -14 -10 -9 112 7 123 16 5 5 7 8 5 8
-3 -1 -32 -5 -64 -10z"/>
<path d="M3727 6573 c18 -2 50 -2 70 0 21 2 7 4 -32 4 -38 0 -55 -2 -38 -4z"/>
<path d="M3855 6571 c19 -9 93 -15 84 -7 -2 2 -26 6 -54 10 -34 4 -43 3 -30
-3z"/>
<path d="M3968 6553 c6 -2 18 -2 25 0 6 3 1 5 -13 5 -14 0 -19 -2 -12 -5z"/>
<path d="M3485 6540 c-13 -6 -15 -9 -5 -9 8 0 22 4 30 9 18 12 2 12 -25 0z"/>
<path d="M3425 6520 c-16 -7 -17 -9 -3 -9 9 -1 20 4 23 9 7 11 7 11 -20 0z"/>
<path d="M4108 6513 c7 -3 16 -2 19 1 4 3 -2 6 -13 5 -11 0 -14 -3 -6 -6z"/>
<path d="M3364 6494 c-18 -14 -18 -14 6 -3 31 14 36 19 24 19 -6 0 -19 -7 -30
-16z"/>
<path d="M5018 6453 c6 -2 18 -2 25 0 6 3 1 5 -13 5 -14 0 -19 -2 -12 -5z"/>
<path d="M4270 6440 c8 -5 20 -10 25 -10 6 0 3 5 -5 10 -8 5 -19 10 -25 10 -5
0 -3 -5 5 -10z"/>
<path d="M5093 6443 c9 -2 23 -2 30 0 6 3 -1 5 -18 5 -16 0 -22 -2 -12 -5z"/>
<path d="M4873 6433 c9 -2 23 -2 30 0 6 3 -1 5 -18 5 -16 0 -22 -2 -12 -5z"/>
<path d="M5148 6433 c6 -2 18 -2 25 0 6 3 1 5 -13 5 -14 0 -19 -2 -12 -5z"/>
<path d="M3199 6413 c-13 -15 -12 -15 9 -4 23 12 28 21 13 21 -5 0 -15 -7 -22
-17z"/>
<path d="M5270 6397 c14 -8 35 -19 48 -26 36 -19 25 -5 -14 18 -19 12 -41 21
-47 21 -7 0 -1 -6 13 -13z"/>
<path d="M4341 6397 c2 -1 13 -9 24 -17 19 -14 19 -14 6 3 -7 9 -18 17 -24 17
-6 0 -8 -1 -6 -3z"/>
<path d="M4650 6360 c-8 -5 -10 -10 -5 -10 6 0 17 5 25 10 8 5 11 10 5 10 -5
0 -17 -5 -25 -10z"/>
<path d="M4449 6316 c38 -40 43 -43 35 -23 -3 8 -19 24 -37 37 l-32 23 34 -37z"/>
<path d="M4596 6325 c-11 -8 -16 -15 -10 -15 5 0 18 7 28 15 11 8 16 15 10 15
-5 0 -18 -7 -28 -15z"/>
<path d="M3069 6313 c-13 -17 -13 -17 6 -3 11 8 22 16 24 17 2 2 0 3 -6 3 -6
0 -17 -8 -24 -17z"/>
<path d="M3758 6323 c18 -2 45 -2 60 0 15 2 0 4 -33 4 -33 0 -45 -2 -27 -4z"/>
<path d="M5400 6321 c0 -5 7 -12 16 -15 14 -5 15 -4 4 9 -14 17 -20 19 -20 6z"/>
<path d="M3688 6313 c6 -2 18 -2 25 0 6 3 1 5 -13 5 -14 0 -19 -2 -12 -5z"/>
<path d="M3888 6313 c6 -2 18 -2 25 0 6 3 1 5 -13 5 -14 0 -19 -2 -12 -5z"/>
<path d="M3590 6300 c-18 -12 -2 -12 25 0 13 6 15 9 5 9 -8 0 -22 -4 -30 -9z"/>
<path d="M3953 6303 c9 -2 25 -2 35 0 9 3 1 5 -18 5 -19 0 -27 -2 -17 -5z"/>
<path d="M3029 6273 c-13 -16 -12 -17 4 -4 9 7 17 15 17 17 0 8 -8 3 -21 -13z"/>
<path d="M4050 6275 c19 -7 42 -13 50 -13 8 0 -1 6 -20 13 -19 7 -42 13 -50
13 -8 0 1 -6 20 -13z"/>
<path d="M5480 6253 c21 -27 60 -59 60 -49 0 6 -71 76 -77 76 -3 0 5 -12 17
-27z"/>
<path d="M3478 6263 c7 -3 16 -2 19 1 4 3 -2 6 -13 5 -11 0 -14 -3 -6 -6z"/>
<path d="M5223 6253 c26 -2 68 -2 95 0 26 2 4 3 -48 3 -52 0 -74 -1 -47 -3z"/>
<path d="M2990 6235 c-7 -9 -8 -15 -2 -15 5 0 12 7 16 15 3 8 4 15 2 15 -2 0
-9 -7 -16 -15z"/>
<path d="M5128 6243 c7 -3 16 -2 19 1 4 3 -2 6 -13 5 -11 0 -14 -3 -6 -6z"/>
<path d="M5430 6240 c8 -5 24 -10 34 -10 26 0 18 6 -19 14 -22 5 -26 4 -15 -4z"/>
<path d="M2950 6195 c-11 -13 -10 -14 4 -9 9 3 16 10 16 15 0 13 -6 11 -20 -6z"/>
<path d="M4990 6200 c-8 -5 -10 -10 -5 -10 6 0 17 5 25 10 8 5 11 10 5 10 -5
0 -17 -5 -25 -10z"/>
<path d="M3309 6163 c-13 -16 -12 -17 4 -4 9 7 17 15 17 17 0 8 -8 3 -21 -13z"/>
<path d="M3269 6133 c-13 -16 -12 -17 4 -4 9 7 17 15 17 17 0 8 -8 3 -21 -13z"/>
<path d="M4820 6109 l-25 -20 33 16 c17 8 32 18 32 20 0 10 -16 4 -40 -16z"/>
<path d="M4340 6107 c0 -2 15 -16 33 -33 l32 -29 -29 33 c-28 30 -36 37 -36
29z"/>
<path d="M2876 6085 c-9 -26 -7 -32 5 -12 6 10 9 21 6 23 -2 3 -7 -2 -11 -11z"/>
<path d="M4754 6058 l-19 -23 23 19 c21 18 27 26 19 26 -2 0 -12 -10 -23 -22z"/>
<path d="M4669 5990 c-13 -10 -19 -19 -13 -20 6 0 19 9 29 20 23 26 14 26 -16
0z"/>
<path d="M3116 5953 c-6 -14 -5 -15 5 -6 7 7 10 15 7 18 -3 3 -9 -2 -12 -12z"/>
<path d="M4506 5903 c44 -69 43 -68 48 -62 6 5 -60 106 -75 115 -5 3 7 -21 27
-53z"/>
<path d="M4600 5918 c-12 -22 -12 -22 6 -6 10 10 15 20 12 24 -4 3 -12 -5 -18
-18z"/>
<path d="M3076 5873 c-6 -14 -5 -15 5 -6 7 7 10 15 7 18 -3 3 -9 -2 -12 -12z"/>
<path d="M2765 5800 c-4 -17 -5 -34 -2 -36 3 -3 8 9 12 26 4 17 5 34 2 36 -3
3 -8 -9 -12 -26z"/>
<path d="M3041 5784 c0 -11 3 -14 6 -6 3 7 2 16 -1 19 -3 4 -6 -2 -5 -13z"/>
<path d="M4127 5752 c-10 -10 -17 -25 -17 -33 0 -8 -4 -19 -9 -24 -5 -6 -19
-44 -30 -85 -12 -41 -28 -93 -36 -115 -7 -22 -24 -76 -38 -120 -73 -236 -98
-317 -117 -380 l-20 -70 -656 2 -656 3 -31 30 c-36 35 -102 49 -148 30 -49
-21 -89 -77 -89 -128 0 -56 32 -120 65 -128 14 -3 25 -10 25 -15 0 -14 67 -11
104 5 33 14 81 64 70 75 -3 3 -10 -2 -15 -12 -20 -34 -51 -55 -94 -61 -57 -9
-101 17 -126 75 -18 40 -18 45 -4 89 17 50 58 95 80 86 8 -3 15 0 17 6 6 18
67 -2 103 -33 l33 -29 664 -1 663 -1 12 33 c6 19 15 33 20 32 4 -1 9 14 10 32
1 19 13 68 27 109 14 41 26 82 26 91 0 10 5 13 12 9 6 -4 8 -3 5 2 -3 5 4 41
15 79 11 39 25 90 31 115 6 25 14 47 18 50 4 3 16 43 27 90 11 47 28 99 36
115 9 17 16 34 16 38 0 18 33 40 60 40 28 0 64 -25 53 -37 -4 -3 -1 -6 5 -6 7
0 12 -16 12 -40 0 -22 4 -40 9 -40 5 0 12 -26 16 -57 4 -32 9 -65 13 -73 3 -8
7 -19 7 -25 1 -5 7 -21 14 -35 10 -23 11 -22 5 10 -3 19 -17 80 -30 135 -13
55 -26 110 -29 122 -13 56 -93 84 -128 45z"/>
<path d="M3021 5704 c0 -11 3 -14 6 -6 3 7 2 16 -1 19 -3 4 -6 -2 -5 -13z"/>
<path d="M2742 5690 c0 -14 2 -19 5 -12 2 6 2 18 0 25 -3 6 -5 1 -5 -13z"/>
<path d="M3006 5643 c-3 -21 -5 -78 -4 -128 1 -88 1 -87 8 35 4 69 6 126 5
128 -1 1 -5 -14 -9 -35z"/>
<path d="M2741 5525 c-1 -62 33 -244 44 -233 2 2 -1 21 -6 43 -6 22 -16 83
-23 135 -8 57 -14 79 -15 55z"/>
<path d="M4126 5400 c-14 -39 -26 -78 -26 -86 0 -8 -3 -13 -7 -11 -5 3 -9 -11
-10 -31 -1 -20 -7 -38 -12 -40 -6 -2 -11 -15 -11 -28 0 -13 -4 -32 -10 -42 -5
-9 -21 -57 -34 -107 -36 -131 -68 -218 -85 -231 -11 -9 -198 -12 -690 -13
-371 0 -677 -3 -679 -6 -3 -3 300 -5 674 -5 741 0 709 -3 732 57 6 15 36 109
67 208 31 99 72 229 91 289 18 60 32 111 30 113 -2 2 -15 -28 -30 -67z"/>
<path d="M4181 5466 c-1 -9 74 -325 108 -456 18 -70 74 -303 151 -633 38 -161
54 -187 111 -187 34 0 42 5 59 33 11 17 29 61 40 95 11 35 26 78 34 95 56 130
216 581 208 589 -4 4 -9 -4 -10 -19 -1 -14 -7 -32 -12 -38 -6 -7 -26 -58 -45
-113 -19 -56 -38 -109 -43 -119 -22 -42 -40 -91 -53 -143 -7 -30 -16 -57 -19
-60 -8 -8 -48 -110 -66 -169 -15 -53 -53 -123 -73 -135 -5 -4 -13 -1 -17 5 -5
8 -8 8 -14 -1 -5 -8 -15 -4 -35 13 -24 20 -29 33 -33 87 -3 34 -8 57 -12 50
-4 -7 -10 14 -14 46 -4 33 -16 89 -27 125 -11 37 -28 107 -38 155 -16 78 -38
165 -72 294 -52 197 -91 380 -86 401 3 10 0 17 -5 16 -6 -1 -16 16 -23 38 -7
22 -13 36 -14 31z"/>
<path d="M3012 5385 c0 -16 2 -22 5 -12 2 9 2 23 0 30 -3 6 -5 -1 -5 -18z"/>
<path d="M4324 5370 c3 -25 14 -81 25 -125 42 -169 62 -254 88 -360 14 -60 29
-119 33 -130 5 -11 14 -49 20 -85 7 -36 16 -70 21 -76 5 -6 10 -30 12 -52 1
-22 6 -37 10 -33 8 8 -53 270 -169 731 -24 96 -42 155 -40 130z"/>
<path d="M3021 5334 c0 -11 3 -14 6 -6 3 7 2 16 -1 19 -3 4 -6 -2 -5 -13z"/>
<path d="M4887 5288 c-17 -13 -43 -76 -108 -258 -17 -47 -37 -98 -44 -115 -7
-16 -16 -41 -20 -55 -4 -14 -39 -108 -77 -210 -38 -101 -67 -191 -64 -200 3
-11 4 -10 5 3 0 10 12 42 24 70 13 29 36 88 51 132 15 44 32 88 37 98 5 9 20
50 33 91 14 41 29 82 34 92 12 24 31 79 42 119 4 17 18 55 32 85 14 30 28 67
32 83 3 15 11 27 17 27 6 0 8 4 4 9 -6 11 26 31 50 31 9 0 23 -6 30 -14 15
-15 75 -137 75 -153 0 -9 39 -109 73 -185 l12 -28 406 0 406 0 24 26 c34 36
86 57 110 43 11 -5 23 -8 27 -5 13 8 60 -38 72 -68 27 -71 -1 -140 -68 -170
-36 -17 -44 -17 -84 -4 -27 9 -50 26 -63 44 l-20 31 -415 2 c-243 1 -428 6
-447 12 -20 6 -33 18 -37 34 -3 13 -21 57 -39 97 -18 40 -38 84 -44 98 -7 14
-12 20 -12 14 -1 -6 22 -65 50 -131 38 -92 56 -123 75 -132 17 -8 151 -11 438
-11 l413 0 44 -41 c41 -39 47 -41 94 -37 96 8 162 93 136 177 -14 49 -65 99
-107 107 -37 7 -94 -3 -94 -17 0 -5 -6 -9 -14 -9 -7 0 -21 -11 -30 -25 l-16
-25 -399 0 -399 0 -10 28 c-74 199 -126 320 -143 335 -25 20 -68 22 -92 5z"/>
<path d="M2791 5264 c0 -11 3 -14 6 -6 3 7 2 16 -1 19 -3 4 -6 -2 -5 -13z"/>
<path d="M4928 5273 c7 -3 16 -2 19 1 4 3 -2 6 -13 5 -11 0 -14 -3 -6 -6z"/>
<path d="M3041 5244 c0 -11 3 -14 6 -6 3 7 2 16 -1 19 -3 4 -6 -2 -5 -13z"/>
<path d="M2817 5195 c9 -19 18 -33 21 -31 4 5 -26 66 -33 66 -3 0 3 -16 12
-35z"/>
<path d="M3055 5190 c3 -5 8 -10 11 -10 2 0 4 5 4 10 0 6 -5 10 -11 10 -5 0
-7 -4 -4 -10z"/>
<path d="M2850 5121 c0 -5 5 -13 10 -16 6 -3 10 -2 10 4 0 5 -4 13 -10 16 -5
3 -10 2 -10 -4z"/>
<path d="M4835 5100 c-3 -5 -1 -10 4 -10 6 0 11 5 11 10 0 6 -2 10 -4 10 -3 0
-8 -4 -11 -10z"/>
<path d="M3110 5081 c0 -5 5 -13 10 -16 6 -3 10 -2 10 4 0 5 -4 13 -10 16 -5
3 -10 2 -10 -4z"/>
<path d="M2876 5065 c4 -8 11 -15 16 -15 6 0 5 6 -2 15 -7 8 -14 15 -16 15 -2
0 -1 -7 2 -15z"/>
<path d="M4906 5044 c-4 -14 -5 -28 -3 -31 3 -2 8 8 11 23 4 14 5 28 3 31 -3
2 -8 -8 -11 -23z"/>
<path d="M2908 5033 c7 -3 16 -2 19 1 4 3 -2 6 -13 5 -11 0 -14 -3 -6 -6z"/>
<path d="M3068 5033 c18 -2 45 -2 60 0 15 2 0 4 -33 4 -33 0 -45 -2 -27 -4z"/>
<path d="M4831 4942 c-13 -25 -14 -32 -2 -32 9 0 23 41 16 48 -2 2 -8 -5 -14
-16z"/>
<path d="M4381 4854 c0 -11 3 -14 6 -6 3 7 2 16 -1 19 -3 4 -6 -2 -5 -13z"/>
<path d="M4411 4834 c0 -11 3 -14 6 -6 3 7 2 16 -1 19 -3 4 -6 -2 -5 -13z"/>
<path d="M3117 4684 c4 -11 9 -12 16 -5 16 16 274 15 280 -1 3 -8 6 -6 6 5 1
15 -13 17 -154 17 -136 0 -154 -2 -148 -16z"/>
<path d="M3140 4666 c0 -2 8 -10 18 -17 15 -13 16 -12 3 4 -13 16 -21 21 -21
13z"/>
<path d="M3430 4661 c0 -6 4 -13 10 -16 6 -3 7 1 4 9 -7 18 -14 21 -14 7z"/>
<path d="M3190 4600 c12 -16 24 -30 26 -30 3 0 -4 14 -16 30 -12 17 -24 30
-26 30 -3 0 4 -13 16 -30z"/>
<path d="M3500 4576 c0 -4 7 -14 15 -22 8 -9 15 -11 15 -6 0 5 -7 15 -15 22
-8 7 -15 9 -15 6z"/>
<path d="M3230 4561 c0 -6 4 -13 10 -16 6 -3 7 1 4 9 -7 18 -14 21 -14 7z"/>
<path d="M3300 4492 c25 -22 47 -38 49 -36 5 4 -13 19 -64 55 -16 12 -10 3 15
-19z"/>
<path d="M3565 4500 c3 -5 8 -10 11 -10 2 0 4 5 4 10 0 6 -5 10 -11 10 -5 0
-7 -4 -4 -10z"/>
<path d="M4535 4490 c-3 -5 -1 -18 4 -27 9 -16 10 -14 11 10 0 28 -5 34 -15
17z"/>
<path d="M3596 4477 c3 -10 9 -15 12 -12 3 3 0 11 -7 18 -10 9 -11 8 -5 -6z"/>
<path d="M3634 4431 c20 -22 26 -25 26 -13 0 4 -10 13 -22 21 -23 14 -23 14
-4 -8z"/>
<path d="M3380 4427 c0 -2 15 -16 33 -33 l32 -29 -29 33 c-28 30 -36 37 -36
29z"/>
<path d="M3679 4393 c6 -12 16 -25 21 -28 17 -11 11 5 -11 28 l-21 22 11 -22z"/>
<path d="M3726 4345 c4 -8 11 -15 16 -15 6 0 5 6 -2 15 -7 8 -14 15 -16 15 -2
0 -1 -7 2 -15z"/>
<path d="M3461 4348 c2 -2 20 -16 39 -33 l35 -30 -29 33 c-17 17 -34 32 -40
32 -5 0 -7 -1 -5 -2z"/>
<path d="M3820 4256 c25 -26 54 -52 65 -58 11 -6 2 7 -20 28 -65 63 -94 83
-45 30z"/>
<path d="M3541 4277 c2 -1 13 -9 24 -17 19 -14 19 -14 6 3 -7 9 -18 17 -24 17
-6 0 -8 -1 -6 -3z"/>
<path d="M3590 4240 c0 -5 10 -15 23 -21 22 -12 22 -12 3 10 -21 23 -26 26
-26 11z"/>
<path d="M3660 4186 c0 -7 71 -58 76 -53 2 2 -14 16 -36 31 -22 14 -40 25 -40
22z"/>
<path d="M3920 4166 c0 -2 8 -10 18 -17 15 -13 16 -12 3 4 -13 16 -21 21 -21
13z"/>
<path d="M3780 4096 c0 -2 7 -9 15 -16 9 -7 15 -8 15 -2 0 5 -7 12 -15 16 -8
3 -15 4 -15 2z"/>
<path d="M4001 4087 c2 -1 15 -11 29 -22 l25 -20 -19 23 c-11 12 -24 22 -29
22 -6 0 -8 -1 -6 -3z"/>
<path d="M3850 4043 c0 -4 14 -16 30 -25 39 -22 39 -15 0 12 -16 12 -30 18
-30 13z"/>
<path d="M4060 4036 c0 -2 7 -7 16 -10 8 -3 12 -2 9 4 -6 10 -25 14 -25 6z"/>
<path d="M4112 3986 c13 -13 25 -22 27 -20 6 5 -30 44 -41 44 -5 0 2 -11 14
-24z"/>
<path d="M3920 3986 c0 -2 7 -7 16 -10 8 -3 12 -2 9 4 -6 10 -25 14 -25 6z"/>
<path d="M3960 3960 c0 -5 5 -10 11 -10 5 0 7 5 4 10 -3 6 -8 10 -11 10 -2 0
-4 -4 -4 -10z"/>
<path d="M4015 3926 c17 -14 34 -26 39 -26 11 0 11 0 -34 29 l-35 23 30 -26z"/>
<path d="M4233 3868 c100 -99 120 -111 32 -20 -44 45 -83 82 -88 82 -4 0 21
-28 56 -62z"/>
<path d="M4161 3827 c2 -2 18 -11 34 -21 l30 -17 -24 20 c-13 12 -28 21 -34
21 -6 0 -8 -1 -6 -3z"/>
<path d="M4270 3763 c0 -10 40 -36 46 -30 3 2 -7 12 -21 21 -14 9 -25 13 -25
9z"/>
<path d="M4356 3747 c3 -10 9 -15 12 -12 3 3 0 11 -7 18 -10 9 -11 8 -5 -6z"/>
<path d="M4355 3696 c22 -13 43 -22 47 -20 5 3 8 0 8 -6 0 -12 22 -36 55 -60
11 -8 3 5 -18 30 -21 25 -41 45 -45 45 -4 1 -21 9 -39 18 -48 25 -54 20 -8 -7z"/>
</g>
</svg>
